<svg xmlns="http://www.w3.org/2000/svg" width="5in" height="5in" viewBox="0 0 360 360"><path fill="#707070" d="M0 109.6c3.8 2.8 4.3.7 4.7-2 4-27.1 8.2-54.2 12.3-81.2 1-6.6 2.1-13.2 2.9-19.8.3-2.5 1.4-3 3.6-3L58.4 3c21.2-.4 42.6.4 63.7-1.2 36-2.6 72-2 107.8-.8 32.3 1.1 64.7 1.1 96.9 2.5 3.3.1 6.5.2 9.8.1 1.8-.1 2.6.6 2.9 2.5 4.4 29.8 9 59.5 13.5 89.2.8 5.3 1.5 10.6 2.4 15.9.1 1 0 2.9 1.7 2.1 3.3-1.5 2.9.7 2.9 2.7l-2 124.6c0 1.5-.5 3.2-.1 4.6.9 3.5-3 4.3-3.3 7.4-1 8.9-2.5 17.7-3.9 26.5-3.7 24.8-7.5 49.6-11.2 74.4-.3 2.3-1.5 2.5-3.3 2.5l-33.4.6-64.8 1c-1.4.1-4.1-1.6-4.1 2l-2.9.2H128.7c-1.3 0-3.3 1.1-3.5-1.8 0-.8-1.8-.4-2.7-.4l-57.8-.9c-13.7-.2-27.4-.5-41.2-.6-2.2-.1-3.2-.5-3.6-3.1-5.1-34.4-9.8-68.9-16-103.1-1.7-9.2-1.6-18.2-1.8-27.3C1.2 186.4.7 150.1 0 113.8zm143.1 27.1c.4 1.8-1.3 2.4-2.1 3.3-6.7 7-13.5 13.9-20.5 21l34 14.6a4.7 4.7 0 0 1-2.8 2.1l-31.9 14.9c-2.6 1.2-3.2 1.8-.9 4.2 8.7 8.7 17.1 17.6 25.6 26.4-1.9.4-3-.9-4.2-2l-25.4-22.8a4.8 4.8 0 0 0-6-.9c-15.6 7.5-31.3 14.8-47 22.1s-34.2 15.6-49.3 27.2c-1.3 1.1-2.5 1.7-2.2 3.9q7.5 48.3 14.8 96.6c.3 2.4 1.4 2.5 3.2 2.6l25.4.4c22.5.6 45 .7 67.5 1.1 3.3.1 4.7-1.1 6.1-4 15.2-30.8 26.2-63.3 38.8-95.2.8-2.2 1.6-4.3.4-6.5 1.6 1.5 1.9-.1 2.2-1 1.2-3 2.3-6 3.4-9 2.4-6.1 4.7-12.2 7.5-19.3l2.4 5.8c3.3 8.1 5.9 16.5 9.6 24.5a12.7 12.7 0 0 0 1.3 4.7c2.5 6.6 5.1 13.1 7.6 19.7 9.8 25.9 19.4 52 31.8 77 1.2 2.5 2.6 3.4 5.4 3.3l25.4-.6c22.3-.6 44.7.1 67.1-1 1.7 0 3.5.4 3.9-2.2l6-39.3c2.7-17.5 5.3-35.1 8.1-52.6 1.1-7 1.3-7-4.5-10.9a61.6 61.6 0 0 0-6.3-4.1c-11.4-5.6-22.8-11-34.2-16.4l-55.1-26c-1.5-.7-2.6-.8-4 .4-10.2 9.3-20.5 18.4-30.7 27.6-1 .8-1.7 2.5-3.4 1.6.5-1.6 1.8-2.4 2.9-3.5l28.2-29-36.4-17.1 35.6-15.3-25.4-26.4c1.7-.4 2.8.5 4 1.6 8 7.2 16 14.2 23.9 21.5 1.5 1.3 2.5 1.4 4.3.6 15.7-6.7 31.5-13.5 47.3-20.1 17.7-7.6 35.8-14.4 51.3-26.6 2.3-1.9 4.1-3.2 2.9-6.7s-.7-4.8-1-7.2c-4.5-28.9-9-57.7-13.3-86.6-.4-3-1.5-3.3-4-3.4l-23.9-.4c-23.2-.7-46.5-.7-69.7-1.1-2.1 0-3.2.6-4 2.6-2.2 5.1-4.6 10.2-7.1 15.2-12.9 26.6-23.3 54.3-34.5 81.7a5 5 0 0 0-.1 4.3c-2.1-.8-1.8 1.2-2.2 2.1-1.9 4.4-3.6 9-5.5 13.4-1.1 2.6-1.8 5.5-3.8 8.1l-1-2c-2.7-6.6-5.4-13.2-8-19.8-1-2.6-1.7-2.5-3.4-.7-3.5 3.8-7.2 7.6-10.9 11.2s-4 5.1-7.1 6.5c5.2-6.8 11.6-12.3 17.4-18.4 1.9-1.9 2.2-3.5 1.2-6-12.8-32.2-25.9-64.3-41-95.5-1-2.1-2.1-2.7-4.2-2.7l-37.9.7-55.8.8c-2.4 0-3.4.4-3.8 3.2-4.8 31.9-9.6 63.7-14.6 95.6-.3 2 .1 3 1.7 4.1a110.2 110.2 0 0 0 17.7 10q41.7 17.6 83.2 35.6c2.5 1.1 4.3 1 6.3-1a113.4 113.4 0 0 1 9-8.1c5-4.1 9.1-9.1 14.7-12.4z"/><path fill="#7bdede" d="M166.6 245.7c1.2 2.2.4 4.3-.4 6.5-12.6 31.9-23.6 64.4-38.8 95.2-1.4 2.9-2.8 4.1-6.1 4-22.5-.4-45-.5-67.5-1.1l-25.4-.4c-1.8-.1-2.9-.2-3.2-2.6q-7.3-48.3-14.8-96.6c-.3-2.2.9-2.8 2.2-3.9 15.1-11.6 32.2-19.4 49.3-27.2s31.4-14.6 47-22.1a4.8 4.8 0 0 1 6 .9l25.4 22.8c1.2 1.1 2.3 2.4 4.2 2-.4 1.4.1 2.1 1.5 2-.1.7.2.9.8.8-.1.6.2.9.7.8-.1.6.2.8.8.8-.2.8.1 1.3 1 1.5 6.5 4.7 11.7 10.8 17.3 16.6z"/><path fill="#2775cc" d="M191.1 112a5 5 0 0 1 .1-4.3c11.2-27.4 21.6-55.1 34.5-81.7 2.5-5 4.9-10.1 7.1-15.2.8-2 1.9-2.6 4-2.6 23.2.4 46.5.4 69.7 1.1l23.9.4c2.5.1 3.6.4 4 3.4 4.3 28.9 8.8 57.7 13.3 86.6.3 2.4.2 5 1 7.2s-.6 4.8-2.9 6.7c-15.5 12.2-33.6 19-51.3 26.6-15.8 6.6-31.6 13.4-47.3 20.1-1.8.8-2.8.7-4.3-.6-7.9-7.3-15.9-14.3-23.9-21.5-1.2-1.1-2.3-2-4-1.6a3.9 3.9 0 0 0-.8-1 .9.9 0 0 0-.8-1.2h.1c0-.6-.3-.8-.8-.8a.7.7 0 0 0-.8-.8h.1c0-.5-.3-.7-.8-.8-.1-.7-.6-.8-1.1-.8z"/><path fill="#05823b" d="M210.1 227.9c1.7.9 2.4-.8 3.4-1.6 10.2-9.2 20.5-18.3 30.7-27.6 1.4-1.2 2.5-1.1 4-.4l55.1 26c11.4 5.4 22.8 10.8 34.2 16.4a61.6 61.6 0 0 1 6.3 4.1c5.8 3.9 5.6 3.9 4.5 10.9-2.8 17.5-5.4 35.1-8.1 52.6l-6 39.3c-.4 2.6-2.2 2.2-3.9 2.2-22.4 1.1-44.8.4-67.1 1l-25.4.6c-2.8.1-4.2-.8-5.4-3.3-12.4-25-22-51.1-31.8-77-2.5-6.6-5.1-13.1-7.6-19.7a12.7 12.7 0 0 1-1.3-4.7c.5 0 .8-.2.8-.8.5 0 .7-.3.7-.8a.7.7 0 0 0 .8-.8c.5 0 .7-.2.7-.8a.7.7 0 0 0 .8-.8c.5 0 .7-.3.7-.8.5 0 .8-.2.8-.8.5.1.7-.2.7-.7a.7.7 0 0 0 .8-.8c.5 0 .7-.2.7-.8.5.1.8-.2.8-.7.5 0 .7-.3.7-.8.5 0 .8-.2.8-.8.5 0 .8-.2.7-.7a.7.7 0 0 0 .8-.8c.5 0 .8-.3.7-.8.5 0 .8-.2.8-.7a.9.9 0 0 0 .8-.9l.6-.6c.8 0 1.5-.1 1.2-1.2h.1q.9.3.6-.6l.2-.2q.9.5.6-.6h.1c.7.2.9 0 .6-.7h.2q.9.5.6-.6z"/><path fill="#fe0000" d="M143.1 136.7c-5.6 3.3-9.7 8.3-14.7 12.4a113.4 113.4 0 0 0-9 8.1c-2 2-3.8 2.1-6.3 1q-41.5-18-83.2-35.6a110.2 110.2 0 0 1-17.7-10c-1.6-1.1-2-2.1-1.7-4.1 5-31.9 9.8-63.7 14.6-95.6.4-2.8 1.4-3.2 3.8-3.2l55.8-.8 37.9-.7c2.1 0 3.2.6 4.2 2.7 15.1 31.2 28.2 63.3 41 95.5 1 2.5.7 4.1-1.2 6-5.8 6.1-12.2 11.6-17.4 18.4h-.1c-.5 0-.7.3-.8.8h.1a.9.9 0 0 0-.9.8h.1a.7.7 0 0 0-.8.8c-.5 0-.7.3-.8.8h.1c-.5 0-.8.2-.8.8-.5 0-.8.2-.8.7-.5 0-.8.2-.7.8-.5 0-.9.2-.8.8z"/><path fill="#fefefe" d="M205.9 232.2l-.6.6c-.5 0-.8.3-.8.9-.5-.1-.8.2-.8.7-.5 0-.7.3-.7.8-.5 0-.8.2-.8.8-.5-.1-.7.2-.7.7a.7.7 0 0 0-.8.8c-.5 0-.7.2-.7.8-.5 0-.8.2-.8.7-.5 0-.7.3-.7.8a.7.7 0 0 0-.8.8c-.5 0-.7.2-.7.7a.7.7 0 0 0-.8.8c-.5 0-.7.3-.7.8-.5 0-.8.2-.8.8-.5 0-.7.3-.7.8a.7.7 0 0 0-.8.8c-.5 0-.7.2-.7.8a.7.7 0 0 0-.8.8c-3.7-8-6.3-16.4-9.6-24.5l-2.4-5.8c-2.8 7.1-5.1 13.2-7.5 19.3-1.1 3-2.2 6-3.4 9-.3.9-.6 2.5-2.2 1-5.6-5.8-10.8-11.9-17.3-16.7-.1-.7 0-1.5-1-1.5 0-.6-.2-.9-.8-.8.1-.6-.2-.8-.7-.8 0-.5-.2-.8-.8-.8 0-1.1-.8-1.5-1.5-2-8.5-8.8-16.9-17.7-25.6-26.4-2.3-2.4-1.7-3 .9-4.2l31.9-14.9a4.7 4.7 0 0 0 2.8-2.1l-34-14.6c7-7.1 13.8-14 20.5-21 .8-.9 2.5-1.5 2.1-3.3h-.1c.8.2 1 0 .8-.8.7.3 1 0 .7-.8.8.3 1 0 .8-.7.7.2 1 0 .8-.8h-.1c.8.3 1 0 .8-.8.7.2 1-.1.8-.8h-.1c.8.2 1-.1.9-.8h-.1c.7.2 1-.1.8-.8h.1c3.1-1.4 4.8-4.3 7.1-6.5s7.4-7.4 10.9-11.2c1.7-1.8 2.4-1.9 3.4.7 2.6 6.6 5.3 13.2 8 19.8l1 2c2-2.6 2.7-5.5 3.8-8.1 1.9-4.4 3.6-9 5.5-13.4.4-.9.1-2.9 2.2-2.1l19 19.4c.2.5.5.9 1.1.8-.1.7.1.9.8.8h-.1c-.1.6.2.9.8.8-.1.6.1.9.8.8h-.1a1 1 0 0 0 .8 1.2 3.9 3.9 0 0 1 .8 1l25.4 26.5-35.6 15.3 36.4 17.1-28.2 29c-1.1 1.1-2.4 1.9-2.9 3.5a.5.5 0 0 0-.6.6l-.2.2-.6.6h-.1l-.6.6-.2.2-.6.6h-.1a1.3 1.3 0 0 0-1.2 1.5z"/></svg>